<?xml version="1.0" standalone="no"?>
 <!DOCTYPE svg PUBLIC "-//W3C//DTD SVG 1.1//EN" 
 "http://www.w3.org/Graphics/SVG/1.1/DTD/svg11.dtd"> 
<svg
  xmlns:svg="http://www.w3.org/2000/svg"
  xmlns="http://www.w3.org/2000/svg"
  xmlns:xlink="http://www.w3.org/1999/xlink"
  version="1.1"
  width="29.700220cm" height="21.000720cm" viewBox="0 0 116930 82680">
<title>SVG Picture created as rollow-mini_2.0-Edge_Cuts.svg date 2021/07/21 10:15:49 </title>
  <desc>Picture generated by PCBNEW </desc>
<g style="fill:#000000; fill-opacity:1;stroke:#000000; stroke-opacity:1;
stroke-linecap:round; stroke-linejoin:round;"
 transform="translate(0 0) scale(1 1)">
</g>
<g style="fill:#000000; fill-opacity:0.0; 
stroke:#000000; stroke-width:-0.000393701; stroke-opacity:1; 
stroke-linecap:round; stroke-linejoin:round;">
</g>
<g style="fill:#000000; fill-opacity:0.0; 
stroke:#000000; stroke-width:19.685; stroke-opacity:1; 
stroke-linecap:round; stroke-linejoin:round;">
<path d="M51906 48428
L57315 48428
" />
<path d="M51908 41447 A297 297 0.0 0 0 51611 41744" />
<path d="M57315 48428.3 A295.276 295.276 0.0 0 0 57610.3 48133" />
<path d="M51611 48133
L51611 41744
" />
<path d="M51611 48133 A295.276 295.276 0.0 0 0 51906.3 48428.3" />
<path d="M51908 41447
L57313 41447
" />
<path d="M57610 41744 A297 297 0.0 0 0 57313 41447" />
<path d="M57610 48133
L57610 41744
" />
<path d="M74795 21204
L76384 21438
" />
<path d="M74499 23005
L74500 21500
" />
<path d="M71001.3 23005 A295.276 295.276 0.0 0 0 71296.6 23300.3" />
<path d="M71001 23005
L71001 21001
" />
<path d="M71001.3 21001.3 A295.276 295.276 0.0 0 0 70706 20706" />
<path d="M74204.4 23300.3 A295.276 295.276 0.0 0 0 74499.7 23005" />
<path d="M74795.3 21204.7 A295.276 295.276 0.0 0 0 74500 21500" />
<path d="M71296 23300
L74204 23300
" />
<path d="M33816 46080
L47750 46080
" />
<path d="M26711 26029
L32831 26029
" />
<path d="M26711 26029.4 A295.276 295.276 0.0 0 0 26415.7 26324.7" />
<path d="M76593.3 21721 A295.276 295.276 0.0 0 0 76384.4 21438.6" />
<path d="M70706 20706.2 A166554 166554 0.0 0 0 54004.8 19688.9" />
<path d="M47749 20917
L47749 19984
" />
<path d="M48044.3 19689.3 A295.276 295.276 0.0 0 0 47749 19984.6" />
<path d="M47454 21212.3 A295.276 295.276 0.0 0 0 47749.3 20917" />
<path d="M26415 26324
L26416 45784
" />
<path d="M40960 21212
L47454 21212
" />
<path d="M40665 25734
L40665 21507
" />
<path d="M32831 26029
L40370 26029
" />
<path d="M40370 26029.4 A295.276 295.276 0.0 0 0 40665.3 25734.1" />
<path d="M26711 46080
L33816 46080
" />
<path d="M47958.8 46166.5 A295.276 295.276 0.0 0 0 47750 46080" />
<path d="M40960.6 21212.3 A295.276 295.276 0.0 0 0 40665.3 21507.6" />
<path d="M47958 46166
L51297 48955
" />
<path d="M51297.5 48955.8 A295.276 295.276 0.0 0 0 51506.3 49042.3" />
<path d="M26416.6 45784.7 A295.276 295.276 0.0 0 0 26711.9 46080" />
<path d="M48044 19689
L54004 19688
" />
<path d="M70300 53350 A29522.7 29522.7 0.0 0 0 54681.3 49042.2" />
<path d="M70300 53350 A774.241 774.241 0.0 0 0 71375.6 53114.3" />
<path d="M75905.6 45035.9 A6604.08 6604.08 0.0 0 0 76593.3 42152.4" />
<path d="M76593 21721
L76593 42152
" />
<path d="M54681 49042
L51506 49042
" />
<path d="M75905 45035
L71375 53114
" />
<g >
</g>
<g >
</g>
<g >
</g>
<g >
</g>
<g >
</g>
<g >
</g>
<g >
</g>
<g >
</g>
<g >
</g>
<g >
</g>
<g >
</g>
<g >
</g>
<g >
</g>
<g >
</g>
<g >
</g>
<g >
</g>
<g >
</g>
<g >
</g>
<g >
</g>
<g >
</g>
<g >
</g>
<g >
</g>
<g >
</g>
<g >
</g>
<g >
</g>
<g >
</g>
<g >
</g>
<g >
</g>
<g >
</g>
<g >
</g>
<g >
</g>
<g >
</g>
<g >
</g>
<g >
</g>
<g >
</g>
<g >
</g>
<g >
</g>
<g >
</g>
<g >
</g>
<g >
</g>
<g >
</g>
<g >
</g>
<g >
</g>
<g >
</g>
<g >
</g>
<g >
</g>
<g >
</g>
<g >
</g>
<g >
</g>
<g >
</g>
<g >
</g>
<g >
</g>
<g >
</g>
<g >
</g>
<g >
</g>
<g >
</g>
<g >
</g>
<g >
</g>
<g >
</g>
<g >
</g>
<g >
</g>
<g >
</g>
<g >
</g>
<g >
</g>
<g >
</g>
<g >
</g>
<g >
</g>
<g >
</g>
</g> 
</svg>
